<svg xmlns="http://www.w3.org/2000/svg" viewBox="0 0 191.13 88.13"><defs><style>.cls-1{fill:#fff;}</style></defs><g id="Capa_2" data-name="Capa 2"><g id="Capa_1-2" data-name="Capa 1"><path class="cls-1" d="M30.08,87.28H145.19c22.51,0,45.94-8.32,45.94-42.49,0-14.09-3.94-27.48-10-36.72L167.7,12.7a55.52,55.52,0,0,1,8.35,29.1c0,22.86-16.7,25.4-26,25.4h-2.32C148,24,133.13,0,106,0L43.63,0C8.47,0,0,22,0,36.24,0,53.18,9.53,65,19.28,70.13v.42l-17,1.06V88.13C10.8,87.5,19.49,87.28,30.08,87.28ZM133.59,67.66H114.1a21.2,21.2,0,0,1-6.49-1.16C98.1,63.27,88.82,54,88.82,39.49c0-10.4,6.26-19.17,19.48-19.17C130.11,20.32,134.06,45.49,133.59,67.66Zm-90.38,1a26.69,26.69,0,0,1-8.68-1.27c-10.38-3.17-19.07-12.71-19.07-25,0-17.58,13.77-23.72,30.29-23.72h31a38.51,38.51,0,0,0-3,15.52c0,15.93,7.88,27.94,16.7,34.17v.29Z"/></g></g></svg>