<svg id="Capa_1" data-name="Capa 1" xmlns="http://www.w3.org/2000/svg" viewBox="0 0 387.41 426.33"><defs><style>.cls-1{fill:#fff;}</style></defs><path class="cls-1" d="M537.41,369.2A64.91,64.91,0,0,0,505,313.07L376,238.62a64.9,64.9,0,0,0-64.84,0L182.76,312.46a65,65,0,0,0-32.54,56.37L150.43,517a65,65,0,0,0,32.46,56.13l129,74.44a64.93,64.93,0,0,0,64.84.05l128.4-73.89a64.94,64.94,0,0,0,32.55-56.37ZM405.54,497.41a47.18,47.18,0,0,1-15.13,15.05,71.07,71.07,0,0,1-21.56,8.91,105.27,105.27,0,0,1-24.63,2.92,131.24,131.24,0,0,1-38.31-5.5,68.62,68.62,0,0,1-29.29-16.85l22.86-29.88A59.07,59.07,0,0,0,319,483.4a66.27,66.27,0,0,0,23.32,4.52,48.1,48.1,0,0,0,17.07-2.6,9.84,9.84,0,0,0,6.75-10.08,10.22,10.22,0,0,0-1.44-5.34,13.61,13.61,0,0,0-5.31-4.53A66.31,66.31,0,0,0,348.57,461c-4.63-1.52-10.48-3.23-17.55-5.18a117.88,117.88,0,0,1-17.21-6.05,61.93,61.93,0,0,1-15.13-9.23,40.24,40.24,0,0,1-9.82-50.66A47,47,0,0,1,302.21,375a63.4,63.4,0,0,1,20.28-9.71,91,91,0,0,1,25.26-3.39,117.76,117.76,0,0,1,33.8,4.53,95.88,95.88,0,0,1,26.71,12.8L388.65,410a100.26,100.26,0,0,0-16.91-8.74,56.18,56.18,0,0,0-21.4-3.87c-7.08,0-12.25,1-15.45,3.06a9.41,9.41,0,0,0-4.83,8.26q0,7.44,10,11t27,8.07q23.16,6.47,33.64,17.79t10.46,30.11A40.35,40.35,0,0,1,405.54,497.41Z" transform="translate(-150.22 -229.92)"/></svg>